# xmcd
#
# Track frame offsets:
#	150
#	35310
#	56014
#	86012
#	103498
#	123391
#	153843
#	174617
#	201792
#
# Disc length: 3145 seconds
#
# Revision: 1
# Processed by: cddbd v1.4PL0 Copyright (c) Steve Scherf et al.
# Submitted via: audiograbber 1.81.02
#
DISCID=760c4709
DTITLE=John Stowell Trio - Somewhere
DYEAR=1900
DGENRE=Blues
TTITLE0=Two's Blues
TTITLE1=Samba For Laura
TTITLE2=Somewhere
TTITLE3=Fall
TTITLE4=F-Train Walz
TTITLE5=Keep Me In Mind
TTITLE6=Sidram
TTITLE7=Lullaby
TTITLE8=Distant Horizont
EXTD=
EXTT0=
EXTT1=
EXTT2=
EXTT3=
EXTT4=
EXTT5=
EXTT6=
EXTT7=
EXTT8=
PLAYORDER=
